# xmcd
#
# Track frame offsets: 
#        150
#        9700
#        19885
#        29178
#        39654
#        49562
#        59012
#        69443
#        82681
#        94231
#        104571
#        114471
#        124709
#        134369
#        143882
#        155981
#        168073
#        182372
#        194065
#        206039
#        217175
#        230338
#        246126
#        260311
#        272928
#        283837
#
# Disc length: 3929 seconds
#
# Revision: 1
# Processed by: cddbd v1.5.2PL0 Copyright (c) Steve Scherf et al.
# Submitted via: ExactAudioCopy v1.0b1
#
DISCID=8d0f571a
DTITLE=Johnny Crawford - The Complete Hits of Johnny Crawford
DYEAR=2013
DGENRE=Oldies
TTITLE0=Cindy's Birthday (stereo)
TTITLE1=Rumors (stereo)
TTITLE2=Your Nose Is Gonna Grow (stereo)
TTITLE3=Proud (stereo)
TTITLE4=Patti Ann (mono)
TTITLE5=Daydreams (mono)
TTITLE6=Cindy's Gonna Cry (mono)
TTITLE7=Janie, Please Believe Me (stereo)
TTITLE8=Cry On My Shoulder (stereo)
TTITLE9=Sittin' And A-Watchin' (stereo)
TTITLE10=No One Really Loves A Clown (stereo)
TTITLE11=Debbie (stereo)
TTITLE12=Petite Chanson (stereo)
TTITLE13=We Belong Together (mono)
TTITLE14=Mr. Blue (stereo)
TTITLE15=Donna (mono)
TTITLE16=Lonesome Town (stereo)
TTITLE17=Devil Or Angel (stereo)
TTITLE18=Living In The Past (stereo)
TTITLE19=In The Wee Small Hours (stereo)
TTITLE20=Moon River (stereo)
TTITLE21=How High The Moon (stereo)
TTITLE22=Young At Heart (stereo)
TTITLE23=When I Fall In Love (mono)
TTITLE24=That's All I Want From You (mono)
TTITLE25=Good Buddies (mono)
EXTD=
EXTT0=
EXTT1=
EXTT2=
EXTT3=
EXTT4=
EXTT5=
EXTT6=
EXTT7=
EXTT8=
EXTT9=
EXTT10=
EXTT11=
EXTT12=
EXTT13=
EXTT14=
EXTT15=
EXTT16=
EXTT17=
EXTT18=
EXTT19=
EXTT20=
EXTT21=
EXTT22=
EXTT23=
EXTT24=
EXTT25=
PLAYORDER=
